<svg width="937" height="984" viewBox="0 0 937 984" fill="none" xmlns="http://www.w3.org/2000/svg">
<rect width="937" height="984" fill="white"/>
<path d="M103.494 458.49H117.51V482.408L127.031 482.104L143.332 458.49H160.471L140.514 487.283L160.471 516H143.332L129.24 495.662H117.51V516H103.494V458.49ZM160.623 516L182.789 458.49H197.795L183.932 494.596H196.729L194.215 488.121L201.68 468.621L219.961 516H204.879L201.756 507.926H178.752L175.629 516H160.623ZM223.236 458.49H280.061V471.744L243.879 502.746H280.061V516H223.236V502.746L259.418 471.744H223.236V458.49ZM343.816 516V478.904L330.943 497.338H313.881L300.932 478.828V516H286.916V458.49H303.979L322.412 484.998L340.846 458.49H357.908L357.832 458.566V516H343.816ZM417.551 515.924H377.637C373.27 515.924 369.689 514.223 366.896 510.82C364.713 508.18 363.621 505.209 363.621 501.908V472.582C363.621 468.266 365.297 464.686 368.648 461.842C371.289 459.607 374.285 458.49 377.637 458.49H416.789V471.744H377.637V480.58H416.027V493.834H377.637V502.67H417.551V515.924ZM444.82 472.658H423.188V458.566H444.82V458.49H458.912V458.566H480.621V472.658H458.912V516H444.82V472.658ZM471.938 516L494.104 458.49H509.109L495.246 494.596H508.043L505.529 488.121L512.994 468.621L531.275 516H516.193L513.07 507.926H490.066L486.943 516H471.938ZM534.475 458.49H548.49V502.746H587.643V516H548.49C544.123 516 540.543 514.299 537.75 510.896C535.566 508.256 534.475 505.285 534.475 501.984V458.49ZM635.326 494.824H649.342V501.908C649.342 506.275 647.641 509.855 644.238 512.648C641.598 514.832 638.627 515.924 635.326 515.924H606.305C601.938 515.924 598.357 514.223 595.564 510.82C593.381 508.18 592.289 505.209 592.289 501.908V472.582C592.289 468.266 593.965 464.686 597.316 461.842C599.957 459.607 602.953 458.49 606.305 458.49H635.326C639.643 458.49 643.223 460.191 646.066 463.594C648.25 466.234 649.342 469.23 649.342 472.582V479.59H635.326V471.744H606.305V502.67H635.326V494.824ZM668.232 471.744V502.67H697.254V471.744H668.232ZM654.217 501.908V472.582C654.217 468.266 655.893 464.686 659.244 461.842C661.885 459.607 664.881 458.49 668.232 458.49H697.254C701.57 458.49 705.15 460.191 707.994 463.594C710.178 466.234 711.27 469.23 711.27 472.582V501.908C711.27 506.275 709.568 509.855 706.166 512.648C703.525 514.832 700.555 515.924 697.254 515.924H668.232C663.865 515.924 660.285 514.223 657.492 510.82C655.309 508.18 654.217 505.209 654.217 501.908ZM717.82 471.744V458.49H759.867C764.184 458.49 767.764 460.191 770.607 463.594C772.791 466.234 773.883 469.23 773.883 472.582V481.57C773.883 485.887 772.207 489.467 768.855 492.311C766.215 494.545 763.219 495.662 759.867 495.662L773.959 516H756.896L742.805 495.662H731.074V516H717.059V482.408H759.867V471.744H717.82ZM780.053 471.744V458.49H822.1C826.416 458.49 829.996 460.191 832.84 463.594C835.023 466.234 836.115 469.23 836.115 472.582V501.908C836.115 506.275 834.414 509.855 831.012 512.648C828.371 514.832 825.4 515.924 822.1 515.924H793.307V516H779.291V479.59H793.307V502.67H822.1V471.744H780.053Z" fill="black"/>
</svg>
